<?xml version="1.0" standalone="no"?>
<!DOCTYPE svg PUBLIC "-//W3C//DTD SVG 20010904//EN"
 "http://www.w3.org/TR/2001/REC-SVG-20010904/DTD/svg10.dtd">
<svg version="1.0" xmlns="http://www.w3.org/2000/svg"
 width="389.000000pt" height="389.000000pt" viewBox="0 0 389.000000 389.000000"
 preserveAspectRatio="xMidYMid meet">
<metadata>
Created by potrace 1.11, written by Peter Selinger 2001-2013
</metadata>
<g transform="translate(0.000000,389.000000) scale(0.100000,-0.100000)"
fill="#000000" stroke="none">
<path d="M1881 2418 c-19 -5 -48 -20 -65 -33 -17 -12 -49 -32 -71 -43 -42 -21
-92 -68 -83 -77 3 -3 39 -8 79 -11 78 -6 109 -22 109 -56 0 -43 -47 -97 -84
-98 -15 0 -9 -11 30 -48 53 -52 88 -114 125 -229 21 -67 30 -80 35 -50 4 31
56 182 75 219 27 53 75 96 116 104 l33 6 -38 39 c-30 30 -43 53 -56 106 -25
97 -34 118 -64 146 -31 29 -90 39 -141 25z"/>
<path d="M2220 2053 c-28 -7 -64 -20 -81 -28 l-30 -16 47 -42 c148 -132 318
-231 454 -266 152 -38 331 -22 473 43 56 25 91 55 45 37 -36 -13 -147 -10
-203 6 -75 22 -143 55 -276 133 -218 130 -319 161 -429 133z"/>
<path d="M1490 2046 c-56 -16 -107 -41 -242 -122 -208 -125 -294 -155 -427
-150 l-85 4 64 -30 c245 -112 497 -87 747 74 82 54 217 165 221 183 2 8 -19
21 -53 34 -63 24 -154 27 -225 7z"/>
<path d="M1744 1934 c-171 -160 -326 -253 -519 -312 l-50 -15 45 -14 c64 -20
217 -25 278 -9 106 28 223 97 329 193 l42 38 -32 83 c-17 45 -34 82 -37 82 -4
0 -29 -21 -56 -46z"/>
<path d="M2069 1933 c-11 -27 -26 -65 -34 -85 l-12 -37 66 -56 c81 -69 179
-129 257 -157 71 -25 219 -30 308 -10 65 15 64 23 -9 42 -27 7 -99 36 -160 66
-135 65 -226 131 -361 262 -13 12 -26 22 -29 22 -3 0 -15 -21 -26 -47z"/>
<path d="M1816 1718 c-63 -63 -153 -129 -217 -157 -37 -17 -38 -19 -22 -34 38
-33 167 -66 241 -61 12 1 34 2 50 3 47 2 55 14 53 77 -2 58 -27 199 -39 220
-4 7 -30 -11 -66 -48z"/>
<path d="M2002 1738 c-24 -90 -32 -135 -32 -199 l0 -65 44 -3 c25 -1 53 -3 63
-5 55 -11 253 47 253 73 0 5 -10 11 -22 15 -42 10 -176 105 -236 167 l-59 61
-11 -44z"/>
</g>
</svg>
